<?xml version="1.0" encoding="UTF-8"?>
<svg width="256px" height="21px" viewBox="0 0 256 21" version="1.1" xmlns="http://www.w3.org/2000/svg" xmlns:xlink="http://www.w3.org/1999/xlink">
    <title>UC Berkeley</title>
    <defs>
        <polygon id="path-1" points="0 0 11.8172165 0 11.8172165 14.6922999 0 14.6922999"></polygon>
        <polygon id="path-3" points="0 0 9.31505855 0 9.31505855 13.9337733 0 13.9337733"></polygon>
    </defs>
    <g id="Symbols" stroke="none" stroke-width="1" fill="none" fill-rule="evenodd">
        <g id="HEADER" transform="translate(-1033.000000, -11.000000)">
            <g id="BERK_HEADER_LOGO" transform="translate(1033.000000, 11.500000)">
                <path d="M81.298,12.5576906 C83.482,12.5576906 84.616,11.1996906 84.616,9.02969061 L84.616,3.62569061 L84.616,3.62569061 L83.734,3.62569061 L83.734,9.04369061 L83.734,9.04369061 C83.734,10.7936906 82.894,11.7316906 81.34,11.7316906 C79.716,11.7316906 78.89,10.7236906 78.89,9.05769061 L78.89,3.62569061 L78.022,3.62569061 L78.022,9.16969061 C78.022,11.2416906 79.198,12.5576906 81.298,12.5576906 Z M87.5,12.3756906 L87.5,7.51769061 C88.032,6.98569061 88.746,6.60769061 89.446,6.60769061 C90.412,6.60769061 90.86,7.11169061 90.86,8.23169061 L90.86,12.3756906 L91.728,12.3756906 L91.728,7.97969061 C91.728,6.57969061 90.972,5.78169061 89.684,5.78169061 C89.012,5.78169061 88.172,6.15969061 87.5,6.83169061 L87.5,5.78169061 L86.632,5.96369061 L86.632,12.3756906 L87.5,12.3756906 Z M94.15,4.49369061 C94.542,4.49369061 94.738,4.18569061 94.738,3.84969061 C94.738,3.52769061 94.542,3.23369061 94.15,3.23369061 C93.758,3.23369061 93.562,3.52769061 93.562,3.84969061 C93.562,4.18569061 93.758,4.49369061 94.15,4.49369061 Z M94.584,12.3756906 L94.584,5.78169061 L93.716,5.96369061 L93.716,12.3756906 L94.584,12.3756906 Z M98.98,12.3896906 L101.5,5.96369061 L100.59,5.96369061 L98.63,11.2556906 L96.6,5.96369061 L95.662,5.96369061 L98.196,12.3896906 L98.98,12.3896906 Z M105.168,12.5576906 C105.966,12.5576906 106.68,12.3476906 107.226,12.0116906 L107.058,11.2136906 C106.568,11.5356906 105.896,11.7456906 105.196,11.7456906 C103.852,11.7456906 102.984,10.7096906 102.956,9.26769061 L102.956,9.19769061 L107.296,9.16969061 C107.38,8.88969061 107.436,8.48369061 107.436,8.14769061 C107.436,6.70569061 106.512,5.78169061 105.098,5.78169061 C103.362,5.78169061 102.074,7.20969061 102.074,9.22569061 C102.074,11.1716906 103.32,12.5576906 105.168,12.5576906 Z M103.012,8.51169061 C103.152,7.44769061 103.894,6.56569061 105.042,6.56569061 C106.05,6.56569061 106.582,7.23769061 106.582,8.21769061 C106.582,8.28769061 106.582,8.42769061 106.568,8.49769061 L103.012,8.51169061 Z M109.942,12.3756906 L109.942,8.25969061 C110.446,7.11169061 111.076,6.60769061 111.748,6.60769061 C112.112,6.60769061 112.448,6.71969061 112.728,6.88769061 L112.952,6.07569061 C112.658,5.90769061 112.252,5.78169061 111.832,5.78169061 C110.992,5.78169061 110.362,6.32769061 109.942,7.15369061 L109.942,5.78169061 L109.074,5.96369061 L109.074,12.3756906 L109.942,12.3756906 Z M115.612,12.5576906 C116.9,12.5576906 117.908,11.8016906 117.908,10.6256906 C117.908,9.43569061 116.928,9.01569061 116.018,8.74969061 C115.192,8.49769061 114.436,8.27369061 114.436,7.54569061 C114.436,6.92969061 114.94,6.56569061 115.724,6.56569061 C116.284,6.56569061 116.942,6.74769061 117.474,7.04169061 L117.726,6.25769061 C117.18,5.97769061 116.48,5.78169061 115.78,5.78169061 C114.576,5.78169061 113.61,6.46769061 113.61,7.62969061 C113.61,8.74969061 114.59,9.18369061 115.472,9.44969061 C116.27,9.70169061 117.082,9.92569061 117.082,10.6956906 C117.082,11.3956906 116.41,11.7736906 115.64,11.7736906 C114.982,11.7736906 114.296,11.5496906 113.75,11.1856906 L113.512,11.9836906 C114.058,12.3336906 114.856,12.5576906 115.612,12.5576906 Z M119.924,4.49369061 C120.316,4.49369061 120.512,4.18569061 120.512,3.84969061 C120.512,3.52769061 120.316,3.23369061 119.924,3.23369061 C119.532,3.23369061 119.336,3.52769061 119.336,3.84969061 C119.336,4.18569061 119.532,4.49369061 119.924,4.49369061 Z M120.358,12.3756906 L120.358,5.78169061 L119.49,5.96369061 L119.49,12.3756906 L120.358,12.3756906 Z M124.166,12.5856906 C124.628,12.5856906 125.146,12.4596906 125.594,12.2496906 L125.44,11.4936906 C125.048,11.6616906 124.628,11.8016906 124.208,11.8016906 C123.536,11.8016906 123.242,11.4096906 123.27,10.5976906 L123.368,6.76169061 L125.496,6.76169061 L125.538,5.99169061 L123.396,5.99169061 L123.438,4.49369061 L122.612,4.49369061 L122.57,5.94969061 L121.604,6.17369061 L121.562,6.71969061 L122.542,6.77569061 L122.444,10.5696906 C122.402,11.9136906 122.948,12.5856906 124.166,12.5856906 Z M126.798,15.7076906 C127.666,15.7076906 128.282,15.2596906 128.87,13.6916906 L129.388,12.3056906 L131.88,5.96369061 L130.97,5.96369061 L128.996,11.2556906 L126.98,5.96369061 L126.042,5.96369061 L128.548,12.2776906 L128.114,13.4116906 C127.652,14.6296906 127.288,14.8956906 126.798,14.8956906 C126.448,14.8956906 126.126,14.7836906 125.818,14.6156906 L125.552,15.4136906 C125.944,15.5816906 126.308,15.7076906 126.798,15.7076906 Z M138.81,12.5576906 C140.588,12.5576906 141.96,11.1996906 141.96,9.15569061 C141.96,7.09769061 140.672,5.78169061 138.88,5.78169061 C137.088,5.78169061 135.716,7.13969061 135.716,9.18369061 C135.716,11.2416906 137.032,12.5576906 138.81,12.5576906 Z M138.852,11.7736906 C137.494,11.7736906 136.584,10.7236906 136.584,9.15569061 C136.584,7.64369061 137.48,6.56569061 138.838,6.56569061 C140.196,6.56569061 141.106,7.61569061 141.106,9.18369061 C141.106,10.6956906 140.21,11.7736906 138.852,11.7736906 Z M144.606,12.3756906 L144.606,6.76169061 L146.58,6.76169061 L146.622,5.99169061 L144.606,5.99169061 L144.606,4.92769061 C144.606,3.89169061 144.956,3.42969061 145.67,3.42969061 C146.02,3.42969061 146.356,3.55569061 146.65,3.69569061 C146.65,3.70969061 146.86,2.92569061 146.86,2.91169061 C146.566,2.77169061 146.118,2.63169061 145.684,2.63169061 C144.564,2.63169061 143.78,3.24769061 143.752,4.94169061 L143.738,5.94969061 L142.772,6.17369061 L142.716,6.71969061 L143.752,6.78969061 L143.752,12.3756906 L144.606,12.3756906 Z M154.812,12.5576906 C155.834,12.5576906 156.8,12.2636906 157.444,11.8436906 L157.276,10.9616906 C156.674,11.4096906 155.778,11.7456906 154.826,11.7456906 C152.824,11.7456906 151.494,10.3036906 151.494,7.99369061 C151.494,5.61369061 152.894,4.25569061 154.798,4.25569061 C155.722,4.25569061 156.534,4.50769061 157.234,4.95569061 L157.514,4.15769061 C156.87,3.76569061 155.876,3.44369061 154.812,3.44369061 C152.362,3.44369061 150.584,5.23569061 150.584,8.02169061 C150.584,10.7936906 152.278,12.5576906 154.812,12.5576906 Z M160.622,12.5576906 C161.378,12.5576906 162.064,12.1376906 162.498,11.6056906 L162.54,11.6056906 C162.638,12.2356906 163.1,12.5716906 163.94,12.5156906 L163.996,11.8016906 C163.436,11.8156906 163.352,11.6196906 163.352,11.1576906 L163.352,8.07769061 C163.366,6.45369061 162.54,5.78169061 161.056,5.78169061 C160.216,5.78169061 159.25,6.14569061 158.676,6.55169061 L158.872,7.36369061 C159.418,6.95769061 160.272,6.59369061 160.972,6.59369061 C162.036,6.59369061 162.484,7.11169061 162.484,8.11969061 L162.484,8.49769061 C159.502,8.66569061 158.592,9.61769061 158.592,10.7796906 C158.592,11.8016906 159.446,12.5576906 160.622,12.5576906 Z M160.818,11.8016906 C160.062,11.8016906 159.502,11.3676906 159.502,10.6816906 C159.502,9.82769061 160.286,9.33769061 162.484,9.08569061 L162.484,10.9616906 C162.092,11.4096906 161.504,11.8016906 160.818,11.8016906 Z M166.152,12.3756906 L166.152,2.75769061 L165.284,2.93969061 L165.284,12.3756906 L166.152,12.3756906 Z M168.616,4.49369061 C169.008,4.49369061 169.204,4.18569061 169.204,3.84969061 C169.204,3.52769061 169.008,3.23369061 168.616,3.23369061 C168.224,3.23369061 168.028,3.52769061 168.028,3.84969061 C168.028,4.18569061 168.224,4.49369061 168.616,4.49369061 Z M169.05,12.3756906 L169.05,5.78169061 L168.182,5.96369061 L168.182,12.3756906 L169.05,12.3756906 Z M172.13,12.3756906 L172.13,6.76169061 L174.104,6.76169061 L174.146,5.99169061 L172.13,5.99169061 L172.13,4.92769061 C172.13,3.89169061 172.48,3.42969061 173.194,3.42969061 C173.544,3.42969061 173.88,3.55569061 174.174,3.69569061 C174.174,3.70969061 174.384,2.92569061 174.384,2.91169061 C174.09,2.77169061 173.642,2.63169061 173.208,2.63169061 C172.088,2.63169061 171.304,3.24769061 171.276,4.94169061 L171.262,5.94969061 L170.296,6.17369061 L170.24,6.71969061 L171.276,6.78969061 L171.276,12.3756906 L172.13,12.3756906 Z M177.94,12.5576906 C179.718,12.5576906 181.09,11.1996906 181.09,9.15569061 C181.09,7.09769061 179.802,5.78169061 178.01,5.78169061 C176.218,5.78169061 174.846,7.13969061 174.846,9.18369061 C174.846,11.2416906 176.162,12.5576906 177.94,12.5576906 Z M177.982,11.7736906 C176.624,11.7736906 175.714,10.7236906 175.714,9.15569061 C175.714,7.64369061 176.61,6.56569061 177.968,6.56569061 C179.326,6.56569061 180.236,7.61569061 180.236,9.18369061 C180.236,10.6956906 179.34,11.7736906 177.982,11.7736906 Z M183.568,12.3756906 L183.568,8.25969061 C184.072,7.11169061 184.702,6.60769061 185.374,6.60769061 C185.738,6.60769061 186.074,6.71969061 186.354,6.88769061 L186.578,6.07569061 C186.284,5.90769061 185.878,5.78169061 185.458,5.78169061 C184.618,5.78169061 183.988,6.32769061 183.568,7.15369061 L183.568,5.78169061 L182.7,5.96369061 L182.7,12.3756906 L183.568,12.3756906 Z M188.552,12.3756906 L188.552,7.51769061 C189.084,6.98569061 189.798,6.60769061 190.498,6.60769061 C191.464,6.60769061 191.912,7.11169061 191.912,8.23169061 L191.912,12.3756906 L192.78,12.3756906 L192.78,7.97969061 C192.78,6.57969061 192.024,5.78169061 190.736,5.78169061 C190.064,5.78169061 189.224,6.15969061 188.552,6.83169061 L188.552,5.78169061 L187.684,5.96369061 L187.684,12.3756906 L188.552,12.3756906 Z M195.202,4.49369061 C195.594,4.49369061 195.79,4.18569061 195.79,3.84969061 C195.79,3.52769061 195.594,3.23369061 195.202,3.23369061 C194.81,3.23369061 194.614,3.52769061 194.614,3.84969061 C194.614,4.18569061 194.81,4.49369061 195.202,4.49369061 Z M195.636,12.3756906 L195.636,5.78169061 L194.768,5.96369061 L194.768,12.3756906 L195.636,12.3756906 Z M199.164,12.5576906 C199.92,12.5576906 200.606,12.1376906 201.04,11.6056906 L201.082,11.6056906 C201.18,12.2356906 201.642,12.5716906 202.482,12.5156906 L202.538,11.8016906 C201.978,11.8156906 201.894,11.6196906 201.894,11.1576906 L201.894,8.07769061 C201.908,6.45369061 201.082,5.78169061 199.598,5.78169061 C198.758,5.78169061 197.792,6.14569061 197.218,6.55169061 L197.414,7.36369061 C197.96,6.95769061 198.814,6.59369061 199.514,6.59369061 C200.578,6.59369061 201.026,7.11169061 201.026,8.11969061 L201.026,8.49769061 C198.044,8.66569061 197.134,9.61769061 197.134,10.7796906 C197.134,11.8016906 197.988,12.5576906 199.164,12.5576906 Z M199.36,11.8016906 C198.604,11.8016906 198.044,11.3676906 198.044,10.6816906 C198.044,9.82769061 198.828,9.33769061 201.026,9.08569061 L201.026,10.9616906 C200.634,11.4096906 200.046,11.8016906 199.36,11.8016906 Z M212.59,12.3756906 C214.802,12.3756906 215.74,11.3676906 215.74,9.93969061 C215.74,8.91769061 215.068,8.14769061 213.78,7.89569061 C214.942,7.60169061 215.46,6.76169061 215.46,5.90769061 C215.46,4.57769061 214.578,3.62569061 212.478,3.62569061 L209.748,3.62569061 L209.748,12.3756906 L212.59,12.3756906 Z M212.38,7.58769061 L210.644,7.58769061 L210.644,4.43769061 L212.52,4.43769061 C213.906,4.43769061 214.564,5.03969061 214.564,5.97769061 C214.564,7.01369061 213.696,7.58769061 212.38,7.58769061 Z M212.66,11.5636906 L210.644,11.5636906 L210.644,8.39969061 L212.436,8.39969061 C213.99,8.39969061 214.844,8.91769061 214.844,9.93969061 C214.844,10.9336906 214.2,11.5636906 212.66,11.5636906 Z M220.01,12.5576906 C220.808,12.5576906 221.522,12.3476906 222.068,12.0116906 L221.9,11.2136906 C221.41,11.5356906 220.738,11.7456906 220.038,11.7456906 C218.694,11.7456906 217.826,10.7096906 217.798,9.26769061 L217.798,9.19769061 L222.138,9.16969061 C222.222,8.88969061 222.278,8.48369061 222.278,8.14769061 C222.278,6.70569061 221.354,5.78169061 219.94,5.78169061 C218.204,5.78169061 216.916,7.20969061 216.916,9.22569061 C216.916,11.1716906 218.162,12.5576906 220.01,12.5576906 Z M217.854,8.51169061 C217.994,7.44769061 218.736,6.56569061 219.884,6.56569061 C220.892,6.56569061 221.424,7.23769061 221.424,8.21769061 C221.424,8.28769061 221.424,8.42769061 221.41,8.49769061 L217.854,8.51169061 Z M224.784,12.3756906 L224.784,8.25969061 C225.288,7.11169061 225.918,6.60769061 226.59,6.60769061 C226.954,6.60769061 227.29,6.71969061 227.57,6.88769061 L227.794,6.07569061 C227.5,5.90769061 227.094,5.78169061 226.674,5.78169061 C225.834,5.78169061 225.204,6.32769061 224.784,7.15369061 L224.784,5.78169061 L223.916,5.96369061 L223.916,12.3756906 L224.784,12.3756906 Z M229.768,12.3756906 L229.768,9.18369061 L229.796,9.18369061 L232.68,12.3756906 L233.786,12.3756906 L230.692,9.01569061 L233.772,5.96369061 L232.68,5.96369061 L229.796,8.91769061 L229.768,8.91769061 L229.768,2.75769061 L228.9,2.93969061 L228.9,12.3756906 L229.768,12.3756906 Z M237.51,12.5576906 C238.308,12.5576906 239.022,12.3476906 239.568,12.0116906 L239.4,11.2136906 C238.91,11.5356906 238.238,11.7456906 237.538,11.7456906 C236.194,11.7456906 235.326,10.7096906 235.298,9.26769061 L235.298,9.19769061 L239.638,9.16969061 C239.722,8.88969061 239.778,8.48369061 239.778,8.14769061 C239.778,6.70569061 238.854,5.78169061 237.44,5.78169061 C235.704,5.78169061 234.416,7.20969061 234.416,9.22569061 C234.416,11.1716906 235.662,12.5576906 237.51,12.5576906 Z M235.354,8.51169061 C235.494,7.44769061 236.236,6.56569061 237.384,6.56569061 C238.392,6.56569061 238.924,7.23769061 238.924,8.21769061 C238.924,8.28769061 238.924,8.42769061 238.91,8.49769061 L235.354,8.51169061 Z M242.284,12.3756906 L242.284,2.75769061 L241.416,2.93969061 L241.416,12.3756906 L242.284,12.3756906 Z M246.974,12.5576906 C247.772,12.5576906 248.486,12.3476906 249.032,12.0116906 L248.864,11.2136906 C248.374,11.5356906 247.702,11.7456906 247.002,11.7456906 C245.658,11.7456906 244.79,10.7096906 244.762,9.26769061 L244.762,9.19769061 L249.102,9.16969061 C249.186,8.88969061 249.242,8.48369061 249.242,8.14769061 C249.242,6.70569061 248.318,5.78169061 246.904,5.78169061 C245.168,5.78169061 243.88,7.20969061 243.88,9.22569061 C243.88,11.1716906 245.126,12.5576906 246.974,12.5576906 Z M244.818,8.51169061 C244.958,7.44769061 245.7,6.56569061 246.848,6.56569061 C247.856,6.56569061 248.388,7.23769061 248.388,8.21769061 C248.388,8.28769061 248.388,8.42769061 248.374,8.49769061 L244.818,8.51169061 Z M250.74,15.7076906 C251.608,15.7076906 252.224,15.2596906 252.812,13.6916906 L253.33,12.3056906 L255.822,5.96369061 L254.912,5.96369061 L252.938,11.2556906 L250.922,5.96369061 L249.984,5.96369061 L252.49,12.2776906 L252.056,13.4116906 C251.594,14.6296906 251.23,14.8956906 250.74,14.8956906 C250.39,14.8956906 250.068,14.7836906 249.76,14.6156906 L249.494,15.4136906 C249.886,15.5816906 250.25,15.7076906 250.74,15.7076906 Z" fill="#1a1a1a" fill-rule="nonzero"></path>
                <g id="Group">
                    <g id="Group-3">
                        <mask id="mask-2" fill="white">
                            <use xlink:href="#path-1"></use>
                        </mask>
                        <g id="Clip-2"></g>
                        <path d="M6.23333766,14.6922999 C5.22248279,14.6922999 4.21162792,14.4553732 3.15264802,14.4553732 C2.14179315,14.4553732 1.61241779,14.5501438 0.842417252,14.5501438 C0.601562918,14.5501438 0.433125301,14.5264512 0.433125301,14.2897501 C0.433125301,14.0523721 0.577500401,14.0049867 1.10687577,14.0049867 C2.18991819,14.0049867 2.23827239,13.957827 2.23827239,13.6026626 L2.23827239,2.70132566 C2.23827239,0.829378914 1.85281379,0.616144864 1.17929249,0.616144864 C0.0960209,0.616144864 0,0.592226547 0,0.307914481 C0,0.142065775 0.0719583833,0.118373103 0.481021167,0.118373103 C1.22741752,0.118373103 1.97335554,0.142065775 2.81577279,0.142065775 C3.32108564,0.142065775 4.47654478,-9.02577988e-05 6.64240045,-9.02577988e-05 C9.77144429,-9.02577988e-05 11.1191744,1.58754442 11.1191744,3.26994979 C11.1191744,4.95258081 10.084257,5.78204998 9.3140273,6.30328877 C8.85661032,6.61151915 8.32700578,6.87213855 8.32700578,6.94321656 C8.32700578,6.99060191 8.78442277,7.10906527 9.26590227,7.34599199 C10.3968406,7.91484177 11.8172165,8.72061827 11.8172165,10.7825577 C11.8172165,13.4365883 9.57894415,14.6922999 6.23333766,14.6922999 M5.92029578,0.568533875 C4.33194051,0.568533875 4.25998212,0.781767925 4.25998212,1.25562137 L4.25998212,6.3982851 C4.25998212,6.77736786 4.57256568,6.72998251 5.15029524,6.72998251 C6.61833793,6.72998251 7.6291928,6.87213855 7.6291928,6.87213855 C8.32700578,6.35089976 9.12152717,5.90051334 9.12152717,4.02856659 C9.12152717,2.84370734 8.1106723,0.568533875 5.92029578,0.568533875 M5.12646189,7.17991764 C4.45248226,7.17991764 4.25998212,7.27491397 4.25998212,7.79637841 L4.25998212,12.0380437 C4.25998212,12.2519546 4.33194051,13.578293 4.54850316,13.815671 C4.81342001,14.0999831 5.58342054,14.2658318 6.35387941,14.2658318 C8.18263068,14.2658318 9.53058995,13.0333615 9.53058995,10.9720991 C9.53058995,8.83885598 7.74973455,7.17991764 5.12646189,7.17991764" fill="#1a1a1a" mask="url(#mask-2)"></path>
                    </g>
                    <path d="M19.4895385,8.80758166 C18.9452673,8.93146048 16.8518284,9.38500592 14.4657434,9.52919276 C14.1304723,9.54995205 14.0676806,9.65284594 14.0676806,10.126925 C14.0676806,12.9716252 16.3075572,13.734078 17.8988916,13.734078 C19.2803092,13.734078 20.0340389,13.2392396 20.1596223,13.2392396 C20.2643516,13.2392396 20.3271433,13.3628928 20.3271433,13.4044113 C20.3271433,13.5070796 18.5476629,14.8058893 16.8518284,14.8058893 C15.135598,14.8058893 12.5815337,13.9811587 12.5815337,10.5391775 C12.5815337,7.6328764 14.5704726,5.90128053 16.4750781,5.90128053 C17.5638497,5.90128053 18.903559,6.58182434 19.6570595,7.44739663 C20.0131847,7.85964912 20.3479975,8.35426186 20.3479975,8.51898234 C20.3479975,8.60156823 20.0551223,8.68392847 19.4895385,8.80758166 M16.2658488,6.33451797 C14.6749727,6.33451797 14.1724098,8.68392847 14.1724098,8.97275343 C14.1724098,9.07587296 14.1724098,9.09640661 14.4238058,9.09640661 C15.5123483,9.09640661 16.6425991,8.8281153 18.212621,8.58080894 C18.4429336,8.53974164 18.464017,8.49844869 18.464017,8.37479551 C18.464017,7.85964912 17.229037,6.33451797 16.2658488,6.33451797" fill="#1a1a1a"></path>
                    <path d="M27.1512959,8.25107463 C26.8581916,8.25107463 26.6070247,7.40603599 25.5601907,7.40603599 C24.346294,7.40603599 23.8856687,7.90064873 23.8856687,8.76622102 L23.8856687,13.0126248 C23.8856687,14.0223839 23.9484604,14.0223839 25.497399,14.0223839 C26.0416702,14.0223839 26.0625243,14.0844362 26.0625243,14.2699159 C26.0625243,14.4969143 26.0416702,14.476155 25.497399,14.476155 C25.2042946,14.476155 23.8020228,14.3730355 23.131939,14.3730355 C22.4201468,14.3730355 21.7085838,14.476155 21.4154795,14.476155 C20.9337708,14.476155 20.8918333,14.476155 20.8918333,14.2699159 C20.8918333,14.0636769 20.9129166,14.0223839 21.4154795,14.0223839 C22.2737092,14.0223839 22.3365009,14.0018503 22.3365009,13.713251 L22.3365009,8.06559486 C22.3365009,6.66411688 22.3782093,6.62304959 21.2062501,6.62304959 C20.8290415,6.62304959 20.8290415,6.64358323 20.8290415,6.41681052 C20.8290415,6.1692785 20.8081874,6.10745191 21.1643126,6.10745191 C21.8758756,6.10745191 22.2737092,6.14851921 22.692397,6.14851921 C23.0272097,6.14851921 23.4248142,6.04562532 23.7600853,6.04562532 C23.8439603,6.04562532 23.9276062,6.10745191 23.9276062,6.27262368 C23.9276062,6.37574322 23.8856687,6.82906301 23.8856687,6.8908896 C23.8856687,7.07636938 23.9065229,7.22055621 23.9903979,7.22055621 C24.3043565,7.22055621 25.2881696,6.14851921 26.2717537,6.14851921 C26.6489623,6.14851921 27.6116921,6.60229029 27.6116921,7.13819597 C27.6116921,7.3442094 27.2768794,8.25107463 27.1512959,8.25107463" fill="#1a1a1a"></path>
                    <path d="M37.052907,14.5585378 C36.8017401,14.5585378 36.5299483,14.5380042 36.3415732,14.5380042 C36.0904063,14.5380042 35.46226,14.5585378 35.1693848,14.5585378 C34.7921762,14.5585378 34.6035719,14.0429401 33.7247172,13.0537147 C32.8456332,12.0644892 31.9658618,10.7656795 31.8400492,10.7656795 C31.7566325,10.7656795 31.4635281,10.9719185 31.107632,11.1984656 C30.7728193,11.4047047 30.4794857,11.5493428 30.4794857,11.7348226 L30.4794857,13.033181 C30.4794857,14.0016472 30.4377774,14.0016472 31.7355491,14.0016472 C32.2167995,14.0016472 32.3006745,14.1047667 32.3006745,14.2699385 C32.3006745,14.4761776 32.1961744,14.4761776 31.7355491,14.4761776 C31.4215906,14.4761776 30.4588607,14.4348846 29.7890061,14.4348846 C29.0769848,14.4348846 28.3024009,14.4761776 28.0095257,14.4761776 C27.5280462,14.4761776 27.4024628,14.4554183 27.4024628,14.2699385 C27.4024628,14.1047667 27.507192,14.0016472 28.0095257,14.0016472 C28.7210887,14.0016472 28.909693,14.0016472 28.909693,13.6925142 C28.909693,13.0950076 28.9724847,6.99380606 28.9724847,2.64473402 C28.9724847,1.18142946 28.8049638,0.995949681 28.2396092,0.995949681 C27.3816086,0.995949681 27.2979627,0.934123089 27.2979627,0.789484966 C27.2979627,0.583471541 27.3396711,0.500885655 27.5699837,0.500885655 C29.0769848,0.500885655 30.3119648,0.04756586 30.5005691,0.04756586 C30.6052983,0.04756586 30.6472359,0.109392452 30.6472359,0.233045637 C30.6472359,0.500885655 30.6052983,1.36690923 30.6052983,2.0264681 C30.6052983,5.1593163 30.4794857,7.46788515 30.4794857,10.8275061 C30.4794857,10.910092 30.5005691,10.9719185 30.56359,10.9719185 C31.0867778,10.9719185 33.264321,9.07582783 33.9341756,8.45711062 C34.7504679,7.69465787 34.9386138,7.34423196 34.9386138,6.91144582 C34.9386138,6.58177921 34.8758221,6.54048626 33.9548007,6.54048626 C33.6408421,6.54048626 33.5361129,6.49919332 33.5361129,6.31371354 C33.5361129,6.14854177 33.6408421,6.10724883 33.9130923,6.10724883 C34.1220924,6.10724883 34.5199261,6.16907542 34.7710929,6.16907542 C35.0431139,6.16907542 36.2574689,6.10724883 36.5086358,6.10724883 C36.6761567,6.10724883 36.7600318,6.12800812 36.7600318,6.18983472 C36.7600318,6.37554014 36.0484688,7.26187172 35.3994683,7.88013764 C34.3526343,8.89034806 33.0548625,9.79698765 33.0548625,9.94140012 C33.0548625,10.1268799 33.4313836,10.5185987 34.8969055,12.2501946 C35.6089268,13.0950076 36.2785523,14.1047667 36.9903444,14.1047667 C37.492449,14.1047667 37.6599699,14.2081119 37.6599699,14.373058 C37.6599699,14.5170192 37.5135323,14.5585378 37.052907,14.5585378" fill="#1a1a1a"></path>
                    <path d="M43.8988305,8.80758166 C43.3543301,8.93146048 41.2611203,9.38500592 38.8748062,9.52919276 C38.5397643,9.54995205 38.4772017,9.65284594 38.4772017,10.126925 C38.4772017,12.9716252 40.7166199,13.734078 42.3077252,13.734078 C43.6891428,13.734078 44.4431017,13.2392396 44.5689143,13.2392396 C44.6731852,13.2392396 44.7359769,13.3628928 44.7359769,13.4044113 C44.7359769,13.5070796 42.9567257,14.8058893 41.2611203,14.8058893 C39.5444316,14.8058893 36.9905965,13.9811587 36.9905965,10.5391775 C36.9905965,7.6328764 38.9793062,5.90128053 40.8843701,5.90128053 C41.9729125,5.90128053 43.3123926,6.58182434 44.0663514,7.44739663 C44.4220183,7.85964912 44.7570602,8.35426186 44.7570602,8.51898234 C44.7570602,8.60156823 44.464185,8.68392847 43.8988305,8.80758166 M40.6749116,6.33451797 C39.0840355,6.33451797 38.581931,8.68392847 38.581931,8.97275343 C38.581931,9.07587296 38.581931,9.09640661 38.8330978,9.09640661 C39.9211819,9.09640661 41.0514327,8.8281153 42.6219129,8.58080894 C42.8519964,8.53974164 42.8728506,8.49844869 42.8728506,8.37479551 C42.8728506,7.85964912 41.6380997,6.33451797 40.6749116,6.33451797" fill="#1a1a1a"></path>
                    <path d="M48.5082233,14.4761325 C48.1940356,14.4761325 47.7338686,14.4346139 47.35666,14.4346139 C46.645097,14.4346139 45.5357004,14.4761325 45.242596,14.4761325 C44.7608873,14.4761325 44.7187206,14.4346139 44.7187206,14.270119 C44.7187206,14.1257065 44.739804,14.0018277 45.242596,14.0018277 C46.1008258,14.0018277 46.4564927,14.0223614 46.4564927,13.6516275 L46.4564927,2.29426299 C46.4564927,0.995904552 46.3311384,0.995904552 45.3892628,0.995904552 C45.0125125,0.995904552 44.8028249,0.954837254 44.8028249,0.727613245 C44.8028249,0.480306877 44.9703458,0.50106617 45.3264711,0.480306877 C46.9590555,0.377412986 47.7544936,0.0269870819 47.8803062,0.0269870819 C47.9850354,0.0269870819 48.0893063,0.130106617 48.0893063,0.356653692 C48.0893063,0.603960061 47.9850354,1.34633046 47.9850354,1.96459638 C47.9850354,9.81770181 47.8803062,11.4457269 47.8803062,12.0439104 C47.8803062,13.7545214 48.0265146,13.9812941 48.403494,13.9812941 C49.4498698,13.9812941 49.4083906,14.1047216 49.4083906,14.270119 C49.4083906,14.4761325 49.2614946,14.4761325 48.5082233,14.4761325" fill="#1a1a1a"></path>
                    <path d="M55.9731722,8.80758166 C55.428901,8.93146048 53.335462,9.38500592 50.9489187,9.52919276 C50.614106,9.54995205 50.5510851,9.65284594 50.5510851,10.126925 C50.5510851,12.9716252 52.7911908,13.734078 54.3820669,13.734078 C55.7637137,13.734078 56.5174434,13.2392396 56.6427977,13.2392396 C56.7475269,13.2392396 56.8100895,13.3628928 56.8100895,13.4044113 C56.8100895,13.5070796 55.0310674,14.8058893 53.335462,14.8058893 C51.6185442,14.8058893 49.0647091,13.9811587 49.0647091,10.5391775 C49.0647091,7.6328764 51.053648,5.90128053 52.9587118,5.90128053 C54.0472542,5.90128053 55.3871926,6.58182434 56.140464,7.44739663 C56.4963601,7.85964912 56.8311728,8.35426186 56.8311728,8.51898234 C56.8311728,8.60156823 56.5380684,8.68392847 55.9731722,8.80758166 M52.7492533,6.33451797 C51.1583772,6.33451797 50.6558143,8.68392847 50.6558143,8.97275343 C50.6558143,9.07587296 50.6558143,9.09640661 50.9069812,9.09640661 C51.9959819,9.09640661 53.1260036,8.8281153 54.6962547,8.58080894 C54.9263381,8.53974164 54.9476507,8.49844869 54.9476507,8.37479551 C54.9476507,7.85964912 53.7119831,6.33451797 52.7492533,6.33451797" fill="#1a1a1a"></path>
                    <g id="Group-18" transform="translate(56.684941, 6.066227)">
                        <mask id="mask-4" fill="white">
                            <use xlink:href="#path-3"></use>
                        </mask>
                        <g id="Clip-17"></g>
                        <path d="M8.77090192,0.536131325 C8.3102766,0.536131325 7.38925513,3.0096463 5.73581648,6.96699949 C4.4162739,10.1203813 3.47462741,11.7901506 2.80500195,13.1505613 C2.57491845,13.6041067 2.32329328,13.6246404 1.86266796,13.686467 C1.23475086,13.7690529 1.08854242,13.9337733 0.627917103,13.9337733 C0.271562689,13.9337733 0.0625625434,13.8308794 0.0625625434,13.7277599 C0.0625625434,13.6041067 1.04637573,13.4804535 1.75793872,12.594122 C2.51189758,11.6664974 4.31200299,9.2342754 4.31200299,8.61623512 C4.31200299,8.38923676 2.637481,4.57561911 1.4859177,1.89631635 C0.962729835,0.65978451 0.8158339,0.556664974 0.439541972,0.556664974 C0.0203958475,0.556664974 0,0.536131325 0,0.350651548 C0,0.165171772 0.0625625434,0.0618265922 0.439541972,0.0618265922 C1.02529238,0.0618265922 1.17218831,0.102893891 1.67429283,0.102893891 C2.2602724,0.102893891 2.99291875,0.0410672985 3.66300254,0.0410672985 C4.10254452,0.0410672985 4.18619041,0.123653184 4.18619041,0.350651548 C4.18619041,0.536131325 4.10254452,0.556664974 3.66300254,0.556664974 C3.16089803,0.556664974 3.03508544,0.680318159 3.03508544,1.15439725 C3.03508544,1.75212952 3.57935665,2.47351498 4.83519086,5.64788176 C5.00317014,6.08066791 5.25410782,6.43109381 5.33798287,6.43109381 C5.48419131,6.43109381 5.6100039,6.1424945 5.94481663,5.17357703 C6.44692114,3.68973882 7.20065083,1.54589045 7.20065083,1.25751678 C7.20065083,0.63925086 7.20065083,0.515597676 6.48908784,0.515597676 C5.84054572,0.515597676 5.7564415,0.515597676 5.7564415,0.309358606 C5.7564415,0.0410672985 5.81900404,0.0410672985 6.19598347,0.0410672985 C6.76110886,0.0410672985 7.13762996,0.0823602414 7.70344285,0.0823602414 C8.01763057,0.0823602414 8.58252679,0 8.87563116,0 C9.2104439,0 9.31517314,0.0205336492 9.31517314,0.247532013 C9.31517314,0.43301179 9.02206877,0.536131325 8.77090192,0.536131325" fill="#1a1a1a" mask="url(#mask-4)"></path>
                    </g>
                </g>
            </g>
        </g>
    </g>
</svg>
