<?xml version="1.0" encoding="UTF-8"?>
<svg width="267px" height="20px" viewBox="0 0 267 20" version="1.1" xmlns="http://www.w3.org/2000/svg" xmlns:xlink="http://www.w3.org/1999/xlink">
    <title>UCSF</title>
    <g id="Symbols" stroke="none" stroke-width="1" fill="none" fill-rule="evenodd">
        <g id="HEADER" transform="translate(-1323.000000, -10.000000)" fill="#1a1a1a">
            <g id="UCSF_HEADER_LOGO" transform="translate(1323.000000, 10.000000)">
                <path d="M63.298,14.0576906 C65.482,14.0576906 66.616,12.6996906 66.616,10.5296906 L66.616,5.12569061 L65.734,5.12569061 L65.734,10.5436906 C65.734,12.2936906 64.894,13.2316906 63.34,13.2316906 C61.716,13.2316906 60.89,12.2236906 60.89,10.5576906 L60.89,5.12569061 L60.022,5.12569061 L60.022,10.6696906 C60.022,12.7416906 61.198,14.0576906 63.298,14.0576906 Z M69.5,13.8756906 L69.5,9.01769061 C70.032,8.48569061 70.746,8.10769061 71.446,8.10769061 C72.412,8.10769061 72.86,8.61169061 72.86,9.73169061 L72.86,13.8756906 L73.728,13.8756906 L73.728,9.47969061 C73.728,8.07969061 72.972,7.28169061 71.684,7.28169061 C71.012,7.28169061 70.172,7.65969061 69.5,8.33169061 L69.5,7.28169061 L68.632,7.46369061 L68.632,13.8756906 L69.5,13.8756906 Z M76.15,5.99369061 C76.542,5.99369061 76.738,5.68569061 76.738,5.34969061 C76.738,5.02769061 76.542,4.73369061 76.15,4.73369061 C75.758,4.73369061 75.562,5.02769061 75.562,5.34969061 C75.562,5.68569061 75.758,5.99369061 76.15,5.99369061 Z M76.584,13.8756906 L76.584,7.28169061 L75.716,7.46369061 L75.716,13.8756906 L76.584,13.8756906 Z M80.98,13.8896906 L83.5,7.46369061 L82.59,7.46369061 L80.63,12.7556906 L78.6,7.46369061 L77.662,7.46369061 L80.196,13.8896906 L80.98,13.8896906 Z M87.168,14.0576906 C87.966,14.0576906 88.68,13.8476906 89.226,13.5116906 L89.058,12.7136906 C88.568,13.0356906 87.896,13.2456906 87.196,13.2456906 C85.852,13.2456906 84.984,12.2096906 84.956,10.7676906 L84.956,10.6976906 L89.296,10.6696906 C89.38,10.3896906 89.436,9.98369061 89.436,9.64769061 C89.436,8.20569061 88.512,7.28169061 87.098,7.28169061 C85.362,7.28169061 84.074,8.70969061 84.074,10.7256906 C84.074,12.6716906 85.32,14.0576906 87.168,14.0576906 Z M85.012,10.0116906 C85.152,8.94769061 85.894,8.06569061 87.042,8.06569061 C88.05,8.06569061 88.582,8.73769061 88.582,9.71769061 C88.582,9.78769061 88.582,9.92769061 88.568,9.99769061 L85.012,10.0116906 Z M91.942,13.8756906 L91.942,9.75969061 C92.446,8.61169061 93.076,8.10769061 93.748,8.10769061 C94.112,8.10769061 94.448,8.21969061 94.728,8.38769061 L94.952,7.57569061 C94.658,7.40769061 94.252,7.28169061 93.832,7.28169061 C92.992,7.28169061 92.362,7.82769061 91.942,8.65369061 L91.942,7.28169061 L91.074,7.46369061 L91.074,13.8756906 L91.942,13.8756906 Z M97.612,14.0576906 C98.9,14.0576906 99.908,13.3016906 99.908,12.1256906 C99.908,10.9356906 98.928,10.5156906 98.018,10.2496906 C97.192,9.99769061 96.436,9.77369061 96.436,9.04569061 C96.436,8.42969061 96.94,8.06569061 97.724,8.06569061 C98.284,8.06569061 98.942,8.24769061 99.474,8.54169061 L99.726,7.75769061 C99.18,7.47769061 98.48,7.28169061 97.78,7.28169061 C96.576,7.28169061 95.61,7.96769061 95.61,9.12969061 C95.61,10.2496906 96.59,10.6836906 97.472,10.9496906 C98.27,11.2016906 99.082,11.4256906 99.082,12.1956906 C99.082,12.8956906 98.41,13.2736906 97.64,13.2736906 C96.982,13.2736906 96.296,13.0496906 95.75,12.6856906 L95.512,13.4836906 C96.058,13.8336906 96.856,14.0576906 97.612,14.0576906 Z M101.924,5.99369061 C102.316,5.99369061 102.512,5.68569061 102.512,5.34969061 C102.512,5.02769061 102.316,4.73369061 101.924,4.73369061 C101.532,4.73369061 101.336,5.02769061 101.336,5.34969061 C101.336,5.68569061 101.532,5.99369061 101.924,5.99369061 Z M102.358,13.8756906 L102.358,7.28169061 L101.49,7.46369061 L101.49,13.8756906 L102.358,13.8756906 Z M106.166,14.0856906 C106.628,14.0856906 107.146,13.9596906 107.594,13.7496906 L107.44,12.9936906 C107.048,13.1616906 106.628,13.3016906 106.208,13.3016906 C105.536,13.3016906 105.242,12.9096906 105.27,12.0976906 L105.368,8.26169061 L107.496,8.26169061 L107.538,7.49169061 L105.396,7.49169061 L105.438,5.99369061 L104.612,5.99369061 L104.57,7.44969061 L103.604,7.67369061 L103.562,8.21969061 L104.542,8.27569061 L104.444,12.0696906 C104.402,13.4136906 104.948,14.0856906 106.166,14.0856906 Z M108.798,17.2076906 C109.666,17.2076906 110.282,16.7596906 110.87,15.1916906 L111.388,13.8056906 L113.88,7.46369061 L112.97,7.46369061 L110.996,12.7556906 L108.98,7.46369061 L108.042,7.46369061 L110.548,13.7776906 L110.114,14.9116906 C109.652,16.1296906 109.288,16.3956906 108.798,16.3956906 C108.448,16.3956906 108.126,16.2836906 107.818,16.1156906 L107.552,16.9136906 C107.944,17.0816906 108.308,17.2076906 108.798,17.2076906 Z M120.81,14.0576906 C122.588,14.0576906 123.96,12.6996906 123.96,10.6556906 C123.96,8.59769061 122.672,7.28169061 120.88,7.28169061 C119.088,7.28169061 117.716,8.63969061 117.716,10.6836906 C117.716,12.7416906 119.032,14.0576906 120.81,14.0576906 Z M120.852,13.2736906 C119.494,13.2736906 118.584,12.2236906 118.584,10.6556906 C118.584,9.14369061 119.48,8.06569061 120.838,8.06569061 C122.196,8.06569061 123.106,9.11569061 123.106,10.6836906 C123.106,12.1956906 122.21,13.2736906 120.852,13.2736906 Z M126.606,13.8756906 L126.606,8.26169061 L128.58,8.26169061 L128.622,7.49169061 L126.606,7.49169061 L126.606,6.42769061 C126.606,5.39169061 126.956,4.92969061 127.67,4.92969061 C128.02,4.92969061 128.356,5.05569061 128.65,5.19569061 C128.65,5.20969061 128.86,4.42569061 128.86,4.41169061 C128.566,4.27169061 128.118,4.13169061 127.684,4.13169061 C126.564,4.13169061 125.78,4.74769061 125.752,6.44169061 L125.738,7.44969061 L124.772,7.67369061 L124.716,8.21969061 L125.752,8.28969061 L125.752,13.8756906 L126.606,13.8756906 Z M136.812,14.0576906 C137.834,14.0576906 138.8,13.7636906 139.444,13.3436906 L139.276,12.4616906 C138.674,12.9096906 137.778,13.2456906 136.826,13.2456906 C134.824,13.2456906 133.494,11.8036906 133.494,9.49369061 C133.494,7.11369061 134.894,5.75569061 136.798,5.75569061 C137.722,5.75569061 138.534,6.00769061 139.234,6.45569061 L139.514,5.65769061 C138.87,5.26569061 137.876,4.94369061 136.812,4.94369061 C134.362,4.94369061 132.584,6.73569061 132.584,9.52169061 C132.584,12.2936906 134.278,14.0576906 136.812,14.0576906 Z M142.622,14.0576906 C143.378,14.0576906 144.064,13.6376906 144.498,13.1056906 L144.54,13.1056906 C144.638,13.7356906 145.1,14.0716906 145.94,14.0156906 L145.996,13.3016906 C145.436,13.3156906 145.352,13.1196906 145.352,12.6576906 L145.352,9.57769061 C145.366,7.95369061 144.54,7.28169061 143.056,7.28169061 C142.216,7.28169061 141.25,7.64569061 140.676,8.05169061 L140.872,8.86369061 C141.418,8.45769061 142.272,8.09369061 142.972,8.09369061 C144.036,8.09369061 144.484,8.61169061 144.484,9.61969061 L144.484,9.99769061 C141.502,10.1656906 140.592,11.1176906 140.592,12.2796906 C140.592,13.3016906 141.446,14.0576906 142.622,14.0576906 Z M142.818,13.3016906 C142.062,13.3016906 141.502,12.8676906 141.502,12.1816906 C141.502,11.3276906 142.286,10.8376906 144.484,10.5856906 L144.484,12.4616906 C144.092,12.9096906 143.504,13.3016906 142.818,13.3016906 Z M148.152,13.8756906 L148.152,4.25769061 L147.284,4.43969061 L147.284,13.8756906 L148.152,13.8756906 Z M150.616,5.99369061 C151.008,5.99369061 151.204,5.68569061 151.204,5.34969061 C151.204,5.02769061 151.008,4.73369061 150.616,4.73369061 C150.224,4.73369061 150.028,5.02769061 150.028,5.34969061 C150.028,5.68569061 150.224,5.99369061 150.616,5.99369061 Z M151.05,13.8756906 L151.05,7.28169061 L150.182,7.46369061 L150.182,13.8756906 L151.05,13.8756906 Z M154.13,13.8756906 L154.13,8.26169061 L156.104,8.26169061 L156.146,7.49169061 L154.13,7.49169061 L154.13,6.42769061 C154.13,5.39169061 154.48,4.92969061 155.194,4.92969061 C155.544,4.92969061 155.88,5.05569061 156.174,5.19569061 C156.174,5.20969061 156.384,4.42569061 156.384,4.41169061 C156.09,4.27169061 155.642,4.13169061 155.208,4.13169061 C154.088,4.13169061 153.304,4.74769061 153.276,6.44169061 L153.262,7.44969061 L152.296,7.67369061 L152.24,8.21969061 L153.276,8.28969061 L153.276,13.8756906 L154.13,13.8756906 Z M159.94,14.0576906 C161.718,14.0576906 163.09,12.6996906 163.09,10.6556906 C163.09,8.59769061 161.802,7.28169061 160.01,7.28169061 C158.218,7.28169061 156.846,8.63969061 156.846,10.6836906 C156.846,12.7416906 158.162,14.0576906 159.94,14.0576906 Z M159.982,13.2736906 C158.624,13.2736906 157.714,12.2236906 157.714,10.6556906 C157.714,9.14369061 158.61,8.06569061 159.968,8.06569061 C161.326,8.06569061 162.236,9.11569061 162.236,10.6836906 C162.236,12.1956906 161.34,13.2736906 159.982,13.2736906 Z M165.568,13.8756906 L165.568,9.75969061 C166.072,8.61169061 166.702,8.10769061 167.374,8.10769061 C167.738,8.10769061 168.074,8.21969061 168.354,8.38769061 L168.578,7.57569061 C168.284,7.40769061 167.878,7.28169061 167.458,7.28169061 C166.618,7.28169061 165.988,7.82769061 165.568,8.65369061 L165.568,7.28169061 L164.7,7.46369061 L164.7,13.8756906 L165.568,13.8756906 Z M170.552,13.8756906 L170.552,9.01769061 C171.084,8.48569061 171.798,8.10769061 172.498,8.10769061 C173.464,8.10769061 173.912,8.61169061 173.912,9.73169061 L173.912,13.8756906 L174.78,13.8756906 L174.78,9.47969061 C174.78,8.07969061 174.024,7.28169061 172.736,7.28169061 C172.064,7.28169061 171.224,7.65969061 170.552,8.33169061 L170.552,7.28169061 L169.684,7.46369061 L169.684,13.8756906 L170.552,13.8756906 Z M177.202,5.99369061 C177.594,5.99369061 177.79,5.68569061 177.79,5.34969061 C177.79,5.02769061 177.594,4.73369061 177.202,4.73369061 C176.81,4.73369061 176.614,5.02769061 176.614,5.34969061 C176.614,5.68569061 176.81,5.99369061 177.202,5.99369061 Z M177.636,13.8756906 L177.636,7.28169061 L176.768,7.46369061 L176.768,13.8756906 L177.636,13.8756906 Z M181.164,14.0576906 C181.92,14.0576906 182.606,13.6376906 183.04,13.1056906 L183.082,13.1056906 C183.18,13.7356906 183.642,14.0716906 184.482,14.0156906 L184.538,13.3016906 C183.978,13.3156906 183.894,13.1196906 183.894,12.6576906 L183.894,9.57769061 C183.908,7.95369061 183.082,7.28169061 181.598,7.28169061 C180.758,7.28169061 179.792,7.64569061 179.218,8.05169061 L179.414,8.86369061 C179.96,8.45769061 180.814,8.09369061 181.514,8.09369061 C182.578,8.09369061 183.026,8.61169061 183.026,9.61969061 L183.026,9.99769061 C180.044,10.1656906 179.134,11.1176906 179.134,12.2796906 C179.134,13.3016906 179.988,14.0576906 181.164,14.0576906 Z M181.36,13.3016906 C180.604,13.3016906 180.044,12.8676906 180.044,12.1816906 C180.044,11.3276906 180.828,10.8376906 183.026,10.5856906 L183.026,12.4616906 C182.634,12.9096906 182.046,13.3016906 181.36,13.3016906 Z M193.946,14.0576906 C195.696,14.0576906 196.9,12.9796906 196.9,11.5376906 C196.9,9.95569061 195.626,9.38169061 194.366,9.00369061 C193.022,8.58369061 192.154,8.21969061 192.154,7.25369061 C192.154,6.45569061 192.784,5.75569061 194.1,5.75569061 C194.884,5.75569061 195.738,6.03569061 196.396,6.48369061 L196.718,5.69969061 C195.976,5.22369061 195.094,4.94369061 194.086,4.94369061 C192.462,4.94369061 191.286,5.93769061 191.286,7.32369061 C191.286,8.87769061 192.602,9.40969061 193.834,9.77369061 C195.206,10.1796906 196.046,10.5856906 196.046,11.6076906 C196.046,12.5316906 195.192,13.2596906 193.974,13.2596906 C192.98,13.2596906 192.154,12.9236906 191.454,12.4476906 L191.132,13.2456906 C191.93,13.7496906 192.896,14.0576906 193.946,14.0576906 Z M199.98,14.0576906 C200.736,14.0576906 201.422,13.6376906 201.856,13.1056906 L201.898,13.1056906 C201.996,13.7356906 202.458,14.0716906 203.298,14.0156906 L203.354,13.3016906 C202.794,13.3156906 202.71,13.1196906 202.71,12.6576906 L202.71,9.57769061 C202.724,7.95369061 201.898,7.28169061 200.414,7.28169061 C199.574,7.28169061 198.608,7.64569061 198.034,8.05169061 L198.23,8.86369061 C198.776,8.45769061 199.63,8.09369061 200.33,8.09369061 C201.394,8.09369061 201.842,8.61169061 201.842,9.61969061 L201.842,9.99769061 C198.86,10.1656906 197.95,11.1176906 197.95,12.2796906 C197.95,13.3016906 198.804,14.0576906 199.98,14.0576906 Z M200.176,13.3016906 C199.42,13.3016906 198.86,12.8676906 198.86,12.1816906 C198.86,11.3276906 199.644,10.8376906 201.842,10.5856906 L201.842,12.4616906 C201.45,12.9096906 200.862,13.3016906 200.176,13.3016906 Z M205.51,13.8756906 L205.51,9.01769061 C206.042,8.48569061 206.756,8.10769061 207.456,8.10769061 C208.422,8.10769061 208.87,8.61169061 208.87,9.73169061 L208.87,13.8756906 L209.738,13.8756906 L209.738,9.47969061 C209.738,8.07969061 208.982,7.28169061 207.694,7.28169061 C207.022,7.28169061 206.182,7.65969061 205.51,8.33169061 L205.51,7.28169061 L204.642,7.46369061 L204.642,13.8756906 L205.51,13.8756906 Z M215.912,13.8756906 L215.912,10.0536906 L219.44,10.0536906 L219.44,9.22769061 L215.912,9.22769061 L215.912,5.96569061 L220.168,5.96569061 L220.168,5.12569061 L215.016,5.12569061 L215.016,13.8756906 L215.912,13.8756906 Z M222.478,13.8756906 L222.478,9.75969061 C222.982,8.61169061 223.612,8.10769061 224.284,8.10769061 C224.648,8.10769061 224.984,8.21969061 225.264,8.38769061 L225.488,7.57569061 C225.194,7.40769061 224.788,7.28169061 224.368,7.28169061 C223.528,7.28169061 222.898,7.82769061 222.478,8.65369061 L222.478,7.28169061 L221.61,7.46369061 L221.61,13.8756906 L222.478,13.8756906 Z M228.008,14.0576906 C228.764,14.0576906 229.45,13.6376906 229.884,13.1056906 L229.926,13.1056906 C230.024,13.7356906 230.486,14.0716906 231.326,14.0156906 L231.382,13.3016906 C230.822,13.3156906 230.738,13.1196906 230.738,12.6576906 L230.738,9.57769061 C230.752,7.95369061 229.926,7.28169061 228.442,7.28169061 C227.602,7.28169061 226.636,7.64569061 226.062,8.05169061 L226.258,8.86369061 C226.804,8.45769061 227.658,8.09369061 228.358,8.09369061 C229.422,8.09369061 229.87,8.61169061 229.87,9.61969061 L229.87,9.99769061 C226.888,10.1656906 225.978,11.1176906 225.978,12.2796906 C225.978,13.3016906 226.832,14.0576906 228.008,14.0576906 Z M228.204,13.3016906 C227.448,13.3016906 226.888,12.8676906 226.888,12.1816906 C226.888,11.3276906 227.672,10.8376906 229.87,10.5856906 L229.87,12.4616906 C229.478,12.9096906 228.89,13.3016906 228.204,13.3016906 Z M233.538,13.8756906 L233.538,9.01769061 C234.07,8.48569061 234.784,8.10769061 235.484,8.10769061 C236.45,8.10769061 236.898,8.61169061 236.898,9.73169061 L236.898,13.8756906 L237.766,13.8756906 L237.766,9.47969061 C237.766,8.07969061 237.01,7.28169061 235.722,7.28169061 C235.05,7.28169061 234.21,7.65969061 233.538,8.33169061 L233.538,7.28169061 L232.67,7.46369061 L232.67,13.8756906 L233.538,13.8756906 Z M242.456,14.0576906 C243.198,14.0576906 243.898,13.8476906 244.444,13.5116906 L244.262,12.7136906 C243.772,13.0356906 243.128,13.2456906 242.484,13.2456906 C241.126,13.2456906 240.216,12.2236906 240.216,10.6556906 C240.216,9.12969061 241.084,8.09369061 242.47,8.09369061 C243.142,8.09369061 243.758,8.28969061 244.248,8.61169061 L244.472,7.82769061 C243.926,7.47769061 243.254,7.28169061 242.47,7.28169061 C240.65,7.28169061 239.32,8.68169061 239.32,10.6836906 C239.32,12.6716906 240.524,14.0576906 242.456,14.0576906 Z M246.502,5.99369061 C246.894,5.99369061 247.09,5.68569061 247.09,5.34969061 C247.09,5.02769061 246.894,4.73369061 246.502,4.73369061 C246.11,4.73369061 245.914,5.02769061 245.914,5.34969061 C245.914,5.68569061 246.11,5.99369061 246.502,5.99369061 Z M246.936,13.8756906 L246.936,7.28169061 L246.068,7.46369061 L246.068,13.8756906 L246.936,13.8756906 Z M250.534,14.0576906 C251.822,14.0576906 252.83,13.3016906 252.83,12.1256906 C252.83,10.9356906 251.85,10.5156906 250.94,10.2496906 C250.114,9.99769061 249.358,9.77369061 249.358,9.04569061 C249.358,8.42969061 249.862,8.06569061 250.646,8.06569061 C251.206,8.06569061 251.864,8.24769061 252.396,8.54169061 L252.648,7.75769061 C252.102,7.47769061 251.402,7.28169061 250.702,7.28169061 C249.498,7.28169061 248.532,7.96769061 248.532,9.12969061 C248.532,10.2496906 249.512,10.6836906 250.394,10.9496906 C251.192,11.2016906 252.004,11.4256906 252.004,12.1956906 C252.004,12.8956906 251.332,13.2736906 250.562,13.2736906 C249.904,13.2736906 249.218,13.0496906 248.672,12.6856906 L248.434,13.4836906 C248.98,13.8336906 249.778,14.0576906 250.534,14.0576906 Z M257.114,14.0576906 C257.856,14.0576906 258.556,13.8476906 259.102,13.5116906 L258.92,12.7136906 C258.43,13.0356906 257.786,13.2456906 257.142,13.2456906 C255.784,13.2456906 254.874,12.2236906 254.874,10.6556906 C254.874,9.12969061 255.742,8.09369061 257.128,8.09369061 C257.8,8.09369061 258.416,8.28969061 258.906,8.61169061 L259.13,7.82769061 C258.584,7.47769061 257.912,7.28169061 257.128,7.28169061 C255.308,7.28169061 253.978,8.68169061 253.978,10.6836906 C253.978,12.6716906 255.182,14.0576906 257.114,14.0576906 Z M263.316,14.0576906 C265.094,14.0576906 266.466,12.6996906 266.466,10.6556906 C266.466,8.59769061 265.178,7.28169061 263.386,7.28169061 C261.594,7.28169061 260.222,8.63969061 260.222,10.6836906 C260.222,12.7416906 261.538,14.0576906 263.316,14.0576906 Z M263.358,13.2736906 C262,13.2736906 261.09,12.2236906 261.09,10.6556906 C261.09,9.14369061 261.986,8.06569061 263.344,8.06569061 C264.702,8.06569061 265.612,9.11569061 265.612,10.6836906 C265.612,12.1956906 264.716,13.2736906 263.358,13.2736906 Z" fill-rule="nonzero"></path>
                <path d="M27.9590365,19.7498085 C27.9560734,19.7473867 27.8458015,19.741674 27.7139894,19.7371124 C27.5821773,19.7325521 27.4547226,19.7265483 27.4307567,19.7237732 C27.4067909,19.720998 27.3316253,19.7149813 27.2637221,19.7104028 C27.1958189,19.7058256 27.1206533,19.6996776 27.0966874,19.6967426 C27.0727216,19.6938077 27.0204325,19.6884769 26.9804894,19.6848976 C26.8561648,19.6737566 26.5086093,19.6273351 26.3414003,19.5995406 C26.2535256,19.5849321 26.1620196,19.5699013 26.1380538,19.5661387 C26.0524216,19.5526929 25.7280055,19.4793786 25.5352765,19.4299143 C25.0755827,19.3119401 24.5857209,19.1308831 24.2324208,18.94838 C24.1648444,18.9134723 24.1035354,18.88491 24.0961757,18.88491 C24.0888175,18.88491 24.082797,18.8790634 24.082797,18.8719177 C24.082797,18.8647719 24.076698,18.8589253 24.0692425,18.8589253 C24.0539799,18.8589253 23.7662997,18.69048 23.7335609,18.6623776 C23.721928,18.6523904 23.692803,18.6331241 23.6688372,18.6195627 C23.5368028,18.5448543 23.1330771,18.2068618 22.9789114,18.0419633 C22.9429641,18.0035152 22.9070168,17.9654464 22.8990282,17.9573677 C22.7184565,17.7747607 22.4269883,17.3463001 22.2926634,17.0659909 C22.178005,16.8267504 22.1236388,16.6874598 22.050957,16.4467382 C22.0089092,16.3074865 21.9430918,16.0228249 21.9267819,15.9096748 C21.9221471,15.8775188 21.9146552,15.8248999 21.9101337,15.792744 C21.9056107,15.760588 21.8992706,15.7196622 21.8960418,15.7017977 C21.8904788,15.6710138 21.8747804,15.4247756 21.8688659,15.2755199 C21.8673626,15.2375732 21.8719612,15.2033034 21.879087,15.1993641 C21.8952545,15.1904267 24.9092408,15.1894873 24.9192629,15.1984157 C24.923263,15.2019937 24.9295813,15.2450983 24.9333055,15.2942054 C24.9370296,15.3433112 24.9439245,15.4039528 24.9486276,15.4289617 C24.9533307,15.4539719 24.9598567,15.4948977 24.9631306,15.5199079 C24.9830716,15.6722558 25.0705934,15.9318813 25.1602169,16.1045621 C25.2115285,16.2034233 25.324245,16.3776087 25.3703901,16.42937 C25.7017723,16.8010282 26.0514267,17.0227031 26.5592847,17.1831063 C26.6747114,17.2195627 26.8134097,17.2572794 26.8659312,17.2664909 C26.8810137,17.2691362 26.9325708,17.2802862 26.9805025,17.2912686 C27.0284342,17.3022523 27.0970636,17.3148159 27.1330124,17.3191904 C27.1689611,17.3235649 27.208178,17.3295647 27.2201609,17.3325218 C27.2528895,17.3406017 27.3184586,17.349061 27.4235074,17.3587559 C27.4754334,17.3635474 27.5216715,17.3695057 27.5262584,17.3719951 C27.5429227,17.3810377 27.9451378,17.3953968 28.1860598,17.3955488 C28.5338841,17.3957697 28.9245563,17.3751821 29.1374311,17.3454128 C29.1838479,17.3389218 29.2938046,17.3246498 29.3407776,17.3190176 C29.3607492,17.3166231 29.4065021,17.3087316 29.4424509,17.3014793 C29.4783997,17.2942282 29.5306888,17.2847542 29.5586489,17.2804265 C29.7168816,17.255936 29.9848052,17.182558 30.1817898,17.1097594 C30.6751085,16.9274643 31.0058517,16.6655522 31.1904758,16.3110308 C31.2676545,16.1628145 31.3095003,16.0270968 31.3382506,15.8317313 C31.357509,15.7008597 31.3443321,15.4243962 31.3137924,15.3185348 C31.1898861,14.8890608 30.8756678,14.6104536 30.2413137,14.3676012 C30.0759494,14.3042962 29.6653783,14.1798752 29.5223385,14.1497201 C29.4339757,14.148035 29.3120041,14.143502 29.2875932,14.1396432 C28.778693,13.960552 28.6984234,13.9419184 28.6145415,13.9232835 C28.530661,13.899032 28.4162786,13.899032 28.3603583,13.8880262 C28.304438,13.8770205 28.2488808,13.8660536 28.2368979,13.8636553 C28.224915,13.8612569 28.1138006,13.8379097 27.9899771,13.811773 C27.4051525,13.688324 26.9920395,13.6021031 26.9296702,13.5904879 C26.9176873,13.5882545 26.7412115,13.5503975 26.5375019,13.5063614 C26.3337922,13.4623239 26.1573165,13.4243474 26.1453336,13.4219685 C25.8056214,13.3465195 25.4016808,13.2419223 25.2665861,13.2040354 C25.0904212,13.1619598 25.1068138,13.160324 24.6928583,13.0262433 C24.4785747,12.9467109 24.4286255,12.9256789 24.3798354,12.9084719 C24.0109067,12.7472502 23.9521096,12.7153801 23.8914551,12.6791224 C23.8674893,12.6743335 23.7701807,12.6182846 23.6632277,12.554569 L23.4687703,12.4387217 L23.4050633,12.5014499 C23.1636474,12.7391443 22.8822013,12.971278 22.6673947,13.1098541 C22.5974493,13.1431469 22.5744842,13.1683195 22.5552898,13.1791551 C22.5526274,13.1851147 22.4815941,13.2304254 22.3974348,13.2798455 C22.1985473,13.39664 22.1912268,13.4007884 22.1655326,13.4110549 C22.111287,13.4529889 21.6512866,13.652929 21.4538226,13.723932 C21.1249677,13.8421712 20.64048,13.9738262 20.4082438,14.008035 C20.1419571,14.0541512 20.0061943,14.0728536 19.7834717,14.0973234 C19.608187,14.1165806 19.2315311,14.1362081 18.1203876,14.1227194 C17.6657338,14.0787755 17.4377242,14.0445551 16.9644497,13.9735235 C16.4019641,13.830013 15.9997737,13.6776781 15.8327391,13.6163868 C15.4330324,13.4422768 15.3534223,13.4019616 15.2025537,13.3255512 C15.0264701,13.2281764 14.9104173,13.1569655 14.7910747,13.0837395 C14.5820272,12.9478672 14.5690856,12.9351217 14.4891995,12.8760703 C14.2420463,12.6994528 13.9236202,12.4199621 13.7194312,12.200392 C13.5483107,12.0120034 13.4952155,11.9470418 13.4629096,11.9215145 C13.0875638,11.4274661 13.0875638,11.4104721 12.9990514,11.2639708 C12.8274415,10.9887545 12.6479301,10.6369096 12.5289578,10.3424908 C12.4675341,10.1930791 12.4551898,10.1605983 12.4069328,10.024179 C12.3822755,9.95629416 12.2565696,9.55901512 12.2362785,9.46861459 C12.2070722,9.40401289 12.2061251,9.47598513 12.1802479,9.8069384 C12.1641748,9.94621602 12.1502648,10.0688713 12.1389206,10.1346046 C12.1337495,10.1631877 12.099682,10.355474 12.0786458,10.4529163 C12.0590837,10.5487347 12.0498776,10.5914547 12.0330783,10.6709339 C11.9202747,11.0345447 11.8772219,11.1480066 11.7642512,11.4456995 C11.5961389,11.7752106 11.4410581,12.002862 11.3663791,12.1141308 C11.2448868,12.2795359 11.2185897,12.3103147 10.9514359,12.6230398 C10.6566997,12.8950599 10.3874979,13.0773551 10.3010161,13.1374459 C10.0696803,13.2834795 9.90954495,13.3711776 9.24939496,13.6692473 C9.20454979,13.6996714 9.19855833,13.6980604 9.04967961,13.7419757 C8.71669967,13.8489973 8.53405091,13.8941807 8.24021517,13.9633102 C8.09571857,13.9931406 8.01842801,14.0077232 7.96158103,14.0200918 C7.76424484,14.0520633 7.28630787,14.1170873 7.21230426,14.1227792 C6.57582961,14.1819124 5.42024031,14.1820567 5.23403299,14.1499877 C5.01823874,14.1314594 4.84473913,14.1112875 4.72854111,14.0976235 C4.35958335,14.0539498 3.78511487,13.9298017 3.4213134,13.8151186 C2.98557083,13.665655 2.81583457,13.602081 2.37351229,13.3948431 C2.05513408,13.2202992 1.7561711,13.0266487 1.59320338,12.8985574 C1.44034489,12.7784162 1.12923922,12.4873117 1.03452331,12.3757726 C0.897329757,12.2144211 0.856332191,12.1606095 0.798581776,12.0789658 C0.770547552,12.0394418 0.762377379,12.0188412 0.752391611,12.0090736 C0.715022329,11.9725158 0.457626288,11.4857951 0.224489488,10.8524197 C0.176875026,10.6803274 0.125820522,10.4204252 0.081422711,10.1703231 C0.047548084,9.93309638 0.0366385425,9.80978631 0.0194673803,9.64738236 C0.0150811956,9.61522638 0.00574628251,4.92792355 0,0.266930169 L1.61268325,0.266930169 C3.13836323,0.266930169 3.2253665,0.268155345 3.22652848,0.289666723 C3.22716757,0.302171827 3.2317571,4.85971389 3.24365171,9.44600146 C3.24795728,9.46743878 3.29634897,9.79707983 3.33619036,9.95919795 C3.39349196,10.1525015 3.52981693,10.4945762 3.54353265,10.5048791 C3.7220651,10.8286606 3.95218511,11.0872987 4.20042765,11.276181 C4.63785509,11.5373915 4.94716841,11.6466413 5.24135855,11.719241 C5.67954709,11.7976029 6.29173635,11.7971053 6.84804162,11.7181679 C7.28451043,11.6256418 7.64847167,11.5031957 7.95283786,11.3397017 C8.2626944,11.1294081 8.57016162,10.8018224 8.82346604,10.280711 C8.96629229,9.72104749 8.984348,9.43302084 8.991709,0.266941863 L10.6039565,0.266941863 L12.216204,0.266941863 L12.2315424,4.7386372 C12.2480208,4.69577035 12.2800573,4.57061018 12.3097139,4.4534026 C12.5455407,3.82809931 12.7817277,3.28031729 13.3982163,2.37815684 C13.5896642,2.14909452 13.929645,1.74997057 14.9613818,1.00100252 C15.4334362,0.741357583 15.6490416,0.631273689 16.2177728,0.414678788 C16.4501689,0.338439877 16.6244659,0.285956117 16.8203758,0.234006341 C17.0456895,0.181886366 17.5395311,0.0907140876 17.7138281,0.0661696537 C17.8227638,0.0523900033 18.0245416,0.0303485392 18.2875559,0.0113849546 C18.5794453,-0.00935857717 19.3984089,-0.000279806558 19.6674073,0.0266808083 C19.9011266,0.0471611158 20.2556598,0.0930897326 20.3355459,0.104555841 C20.6903566,0.151248926 21.3075133,0.305897763 21.708135,0.448488432 C22.3074263,0.689002187 22.6014073,0.842408958 22.9361447,1.03916459 C23.3196854,1.27572868 23.7581586,1.63731783 24.0399242,1.94939326 C24.4434814,2.433422 24.6703043,2.76759736 24.9604755,3.3358163 C25.1754127,3.889224 25.2888307,4.39120812 25.3345532,4.74923737 L23.7657347,4.74923737 L22.1969162,4.74923737 L22.1736461,4.67453156 C22.0041422,4.19446548 21.9568642,4.0916313 21.7457469,3.69166285 C21.723569,3.66977079 21.701015,3.6454128 21.701015,3.6454128 C21.5627771,3.44329134 21.3524282,3.22223358 21.0768239,3.00826962 C20.6795211,2.77549279 20.5456944,2.71202013 20.1757156,2.58653254 C19.9470524,2.53471399 19.6856068,2.48339045 19.5876723,2.47092367 C19.3416665,2.42552852 18.6814149,2.41656902 18.4039049,2.45486127 C18.0262614,2.52082066 17.5872507,2.6196584 17.1397286,2.81570726 C16.1242451,3.53909343 15.6571,4.23445518 15.392488,5.15206348 C15.2263684,5.98357171 15.195117,6.13007307 15.1723364,7.83497675 C15.2024738,8.10131923 15.3243582,8.76205645 15.3920392,9.05743676 C15.6799155,9.77083184 15.916393,10.2424789 16.5156842,10.8927313 C17.1111991,11.3101874 17.5900511,11.5259898 17.6849268,11.5465086 C18.1495736,11.6552387 18.5603046,11.7235328 19.4932585,11.6733928 C20.0377478,11.5597581 20.3780628,11.4445683 20.4923871,11.3916648 C21.292701,10.9035046 21.6719786,10.4080958 21.8363654,10.1854257 C22.1010281,9.50449846 22.1300805,9.08426199 22.2028161,8.69623348 C22.306597,8.2893921 22.473193,7.91026982 22.6708167,7.55381263 C23.0934725,6.92620582 23.6010981,6.47278698 24.171151,6.17224872 C25.0403267,5.77013654 25.6334595,5.59997618 26.2327653,5.50840633 C26.4942109,5.47038588 26.9826609,5.41796539 27.1550842,5.40591762 C27.5884883,5.37563643 28.4979121,5.37479842 28.7019703,5.4044934 C28.9521592,5.42336487 29.0505644,5.43157588 29.9240104,5.534184 C30.5775516,5.69685299 31.2002277,5.9666904 31.7497427,6.24623308 C32.2153438,6.54874162 32.8548831,7.02720964 33.3387753,7.6515294 C33.6307518,8.37494156 33.7943005,8.88092731 33.8806996,9.28369171 C33.908911,9.53704187 33.9212265,9.78389587 32.3952561,9.78720242 C31.0208804,9.79018156 30.8605707,9.77014481 30.8435434,9.67589205 C30.7679914,9.32069512 30.7188237,9.18934281 30.5863884,8.83554905 C30.3896928,8.57567674 30.0549263,8.31224454 29.6653783,8.16587311 C29.3455664,7.93195945 29.0876039,7.88822731 28.5421879,7.78401075 C28.4628929,7.77409761 28.2411784,7.73519472 27.1318649,7.77035583 C26.8172486,7.81604331 26.5958769,7.86418763 26.501466,7.88789601 C25.5652585,8.25275922 25.2194387,8.60861876 25.1201185,9.03005051 C25.083869,9.20672003 25.0814884,9.38114187 26.196452,10.6769565 C26.388905,10.7317828 26.4458333,10.7458054 26.8936401,10.8441026 C27.1253099,10.8947987 27.3246621,10.9382359 27.5690411,10.9917902 C27.9972308,11.0869576 28.1049463,11.1088938 28.2662219,11.1468379 C28.6293407,11.2254908 29.0011744,11.30398 29.2175932,11.3544993 C29.542846,11.4275161 29.9566271,11.5182025 30.8806774,11.7267239 C30.9460387,11.743675 31.1421229,11.7963615 31.406241,11.8646088 C31.8302185,12.0019259 32.0529701,12.091365 32.6599595,12.36866 C33.0273631,12.5777843 33.2065114,12.7022897 33.4274619,12.9020595 C33.7125538,13.1598271 33.9337512,13.4580137 34.1213675,13.8375063 C34.2649475,14.2337719 34.2934698,14.3225055 34.3036996,10.2494145 L34.3036996,6.15904359 L39.6453225,6.15901761 C42.5832442,6.15900462 44.9901409,6.1635058 44.9939173,6.16902013 C45.0012392,8.51920018 44.9877806,8.53424658 41.2151316,8.5342115 L37.4458131,8.5342115 L37.4458131,10.0501549 L37.4458131,11.5660984 L44.0352575,11.57109 C44.0571013,13.3392533 44.0562734,13.872419 44.0546451,13.9479303 L37.4458828,13.9479303 L37.4458828,16.8452168 L37.4458828,19.7425033 L35.8772096,19.7425033 C34.6325981,19.7425033 34.3073743,19.7262629 34.2925664,16.3515088 C34.1125887,16.9369295 34.0078217,17.1440401 33.1405632,18.268525 C32.7505155,18.5911502 32.5656154,18.7039755 31.7486707,19.1296856 C31.3401185,19.2979205 30.710209,19.4844122 29.9075858,19.6316502 C29.585572,19.6789981 29.2184356,19.7183376 29.1511584,19.7234344 C28.970732,19.7375441 27.9661565,19.7554332 27.959388,19.7499063 L27.9590365,19.7498085 Z" id="Path"></path>
            </g>
        </g>
    </g>
</svg>
